<?xml version="1.0" encoding="utf-8"?>
<svg xmlns="http://www.w3.org/2000/svg" xmlns:xlink="http://www.w3.org/1999/xlink">
  <symbol viewBox="0 0 18 18" id="close">
    <path d="M18 1.3L16.7 0 9 7.7 1.3 0 0 1.3 7.7 9 0 16.7 1.3 18 9 10.3l7.7 7.7 1.3-1.3L10.3 9z"/>
  </symbol>
  <symbol viewBox="0 0 24 18" id="menu">
    <path d="M0 16h24v2H0zM0 8h24v2H0zM0 0h24v2H0z"/>
  </symbol>
  <symbol viewBox="0 0 24.2 11" id="arrow">
    <path d="M17.6 0l6.6 5.5-6.6 5.5V6.6H0V4.4h17.6z"/>
  </symbol>
  <symbol viewBox="0 0 32 11" id="long-arrow">
    <path d="M25.4 0L32 5.5 25.4 11V6.6H0V4.4h25.4z"/>
  </symbol>
  <symbol viewBox="0 0 30 30" id="mobile-plus">
    <path d="M30 14H16V0h-2v14H0v2h14v14h2V16h14z"/>
  </symbol>
  <symbol viewBox="0 0 60 60" id="plus">
    <path d="M60 29.5H30.5V0h-1v29.5H0v1h29.5V60h1V30.5H60z"/>
  </symbol>
  <symbol viewBox="0 0 127.8 23.4" id="footer-logo">
    <path d="M1.6 21.5A9.1 9.1 0 010 15.9V7.6c0-2.5.5-4.4 1.5-5.7C2.6.6 4.3 0 6.8 0c2.4 0 4.1.6 5.1 1.7s1.5 2.8 1.5 4.9v2H8.5V6.3c0-.9-.1-1.6-.3-2s-.6-.8-1.4-.8c-.7 0-1.2.2-1.4.7s-.3 1.3-.3 2.2v10.7c0 .9.1 1.6.4 2.1.2.5.7.7 1.4.7s1.1-.2 1.3-.7c.2-.5.3-1.2.3-2.1v-2.4h4.9v2c0 2.1-.5 3.8-1.5 5-1 1.2-2.7 1.8-5.1 1.8-2.4-.1-4.2-.7-5.2-2zM19.3.3H25l4.2 22.8h-4.6l-.8-4.8h-3.3l-.8 4.8H15L19.3.3zm4.1 15l-1.2-8.9-1.2 8.9h2.4zM32.7 4.1h-3.4V.3h11.9V4h-3.4v19.1h-5.1v-19zM50.3.3h8.8v2.4h-5.7v7.5H58v2.3h-4.6v8.4h5.7v2.3h-8.9V.3zM61.7.3h2.2l6.5 15.1V.3H73v22.8h-2L64.4 7.5v15.6h-2.7V.3zM76 .3h8.8v2.4h-5.7v7.5h4.6v2.3h-4.6v8.4h5.7v2.3H76V.3zM87.4.3H92c2.3 0 4 .5 5.1 1.4 1.1.9 1.6 2.5 1.6 4.6 0 2.9-.9 4.7-2.8 5.3L99.1 23H96l-3-10.7h-2.5V23h-3.2V.3zm4.4 9.8c1.4 0 2.3-.3 2.9-.8.6-.5.9-1.5.9-3 0-.9-.1-1.7-.3-2.2-.2-.5-.6-.9-1.1-1.2-.5-.3-1.3-.4-2.2-.4h-1.4V10h1.2zM102.7 21.4c-.9-1.3-1.4-3.2-1.4-5.8V8c0-1.8.2-3.2.5-4.3.4-1.1 1-2 1.9-2.6s2.1-.9 3.7-.9c2.1 0 3.6.5 4.5 1.6s1.4 2.7 1.4 5v.8h-3v-.7l-.2-2.5a2 2 0 00-.8-1.3 3 3 0 00-1.9-.5c-.9 0-1.5.2-2 .6s-.7.9-.8 1.6l-.2 2.7V16c0 1.7.2 3 .6 3.8.4.8 1.2 1.1 2.4 1.1s2-.4 2.4-1.2c.4-.8.7-2.1.7-4v-1.6h-2.9v-2.3h5.8v11.3h-2l-.3-2.6a4 4 0 01-4.1 2.9c-1.9 0-3.4-.7-4.3-2zM119.8 15.1L114.9.4h3l3.5 11 3.4-11h3l-4.9 14.7v8h-3v-8z"/>
  </symbol>
  <symbol viewBox="10.5 5 39.4 50" id="htmlacademy">
    <path fill="#2E368F" d="M30.2 5H30L10.3 7.1v36.2L30 55l19.7-11.7V7.1L30.2 5zm17 36.8L30 52 12.8 41.8V27l17.1 10.2V39l-11.7-7v1.8L30 40.9v1.9l-11.8-7v1.8l11.8 7 11.9-7.1v-7.6l5.3-3.2v15.1zm-.1-17l-4.7 2.8-2.2 1.3-10.3-6.1v1.8l8.8 5.3h-.1l-.2.1-1.3.7-7.3-4.3v1.8l5.8 3.4-1.4.9-4.3-2.6v1.8l2.9 1.7-2.9 1.7-17-10.1 17-10.2 17.2 10zm.1-1.8L29.9 12.8 12.8 23V9.4L30 7.6l17.2 1.8V23z"/>
  </symbol>
  <symbol viewBox="0 0 22 12" id="vk">
    <path d="M17.6 12c-.3 0-.9-.1-1.5-.5-.5-.3-.9-.7-1.3-1.2-.3-.3-.9-.9-1.1-.9-.2.1-.4.7-.3 1.2 0 .1 0 .6-.3.9-.3.3-.8.4-.9.4h-1.4c-.7 0-3.2-.2-5.4-2.3C2.5 7.1.2 2.2.1 2 0 1.6-.1 1.2.2.9s.8-.4 1-.4h3.1l.7.3c.3.2.4.5.5.6.7 1.5 1.5 2.8 2.6 4 .1-.4.2-1.4.1-2.3l-.2-1a.8.8 0 00-.5-.2l-.6-.5c0-.5.5-.9.9-1.1.5-.2 1.3-.3 2.3-.3h.5l1.6.1c1.2.3 1.2 1.3 1.1 2.5v1.6l.1 1c.2-.1.6-.5 1.5-1.9.6-.9 1-1.9 1.1-2.1.1-.3.4-.7 1.2-.7h3.4c.7 0 1.2.2 1.3.7.2.5.1 1.3-1.7 3.5l-.7.9c-.5.4-.9 1-.9 1.1l.9.9c1.1.9 1.9 1.7 2.2 2.3.4.6.3 1 .2 1.3-.3.7-1.2.7-1.4.8h-2.8-.1zm-3.9-3.7c.7 0 1.2.6 1.8 1.2.4.4.7.8 1.1 1 .5.3 1 .3 1 .3h2.9l.4-.1-.1-.1c-.3-.5-1-1.3-2-2.1-.9-.7-1.3-1.1-1.4-1.7 0-.6.4-1.1 1.2-2.1l.7-.8a9 9 0 001.5-2.3h-3.9c0 .4-.5 1.5-1.1 2.4-1.4 2.1-2 2.4-2.5 2.4l-.4-.1c-.7-.4-.7-1.4-.7-2.1V2.6c.1-1.3 0-1.3-.3-1.4l-1.4-.1H10l-1.4.1.2.2c.4.5.4 1.5.4 1.7.1 1.3 0 2.9-.7 3.3l-.4.1c-.6 0-1.3-.7-2.5-2.5L4.5 1.8l-.1-.1-.2-.1h-3c.4.9 2.5 5 4.8 7.2 2 1.9 4.3 2 4.7 2h1.4l.2-.1v-.1c0-.2 0-2 1.2-2.3h.2z"/>
  </symbol>
  <symbol viewBox="0 0 16.1 16" id="insta">
    <path d="M11.8 1C13.6 1 15 2.4 15 4.2v7.7c0 1.7-1.4 3.1-3.1 3.1H4.2A3.2 3.2 0 011 11.8V4.2C1 2.4 2.4 1 4.2 1h7.6m0-1H4.2A4.2 4.2 0 000 4.2v7.7C0 14.1 1.9 16 4.2 16h7.7c2.3 0 4.2-1.9 4.2-4.2V4.2C16 1.9 14.1 0 11.8 0z"/><path d="M8 4.9c1.7 0 3.1 1.4 3.1 3.1S9.7 11.1 8 11.1 4.9 9.7 4.9 8 6.3 4.9 8 4.9m0-1C5.7 3.9 3.9 5.7 3.9 8s1.8 4.1 4.1 4.1 4.1-1.8 4.1-4.1S10.3 3.9 8 3.9z"/><circle cx="12.3" cy="3.7" r=".9"/>
  </symbol>
  <symbol viewBox="0 0 10 19" id="fb">
    <path d="M7.1 19H2v-8.8H0V5.8h1.9c-.1-2 .2-3.4 1.1-4.4C3.8.5 5 .1 6.5 0H10v4.2H7.2L7 5.8h3v4.4H7.1V19zm-4-1h2.8V9.1h2.9V6.8H5.9v-.5c0-1.4 0-2.6.7-3.1l.1-.1h2.1V1H6.5c-1.2.1-2 .4-2.6 1-.8.8-1 2.3-.8 4.2l.1.6H1.1v2.3h2V18z"/>
  </symbol>
</svg>
